<svg xmlns="http://www.w3.org/2000/svg" viewBox="0 0 1280 560" role="img" aria-labelledby="title desc">
  <title id="title">HandoffKit coding-review demo</title>
  <desc id="desc">A taller polished before and after graphic showing vague context soup versus a structured HandoffState report.</desc>
  <defs>
    <linearGradient id="bg" x1="0" y1="0" x2="1280" y2="560" gradientUnits="userSpaceOnUse">
      <stop stop-color="#f8fafc"/>
      <stop offset="0.5" stop-color="#eef6ff"/>
      <stop offset="1" stop-color="#ecfdf5"/>
    </linearGradient>
    <linearGradient id="accent" x1="0" y1="0" x2="1" y2="0">
      <stop stop-color="#2563eb"/>
      <stop offset="0.52" stop-color="#059669"/>
      <stop offset="1" stop-color="#f59e0b"/>
    </linearGradient>
    <filter id="shadow" x="-7%" y="-10%" width="114%" height="124%">
      <feDropShadow dx="0" dy="18" stdDeviation="20" flood-color="#0f172a" flood-opacity="0.14"/>
    </filter>
    <style>
      .sans { font-family: Inter, ui-sans-serif, system-ui, -apple-system, BlinkMacSystemFont, "Segoe UI", sans-serif; }
      .mono { font-family: ui-monospace, SFMono-Regular, Menlo, Consolas, "Liberation Mono", monospace; }
      .title { fill: #0f172a; font-size: 38px; font-weight: 860; letter-spacing: 0; }
      .lead { fill: #475569; font-size: 17px; font-weight: 540; letter-spacing: 0; }
      .label { font-size: 12px; font-weight: 820; letter-spacing: 0; }
      .h2 { fill: #0f172a; font-size: 24px; font-weight: 820; letter-spacing: 0; }
      .body { fill: #334155; font-size: 17px; font-weight: 560; letter-spacing: 0; }
      .muted { fill: #64748b; font-size: 14px; font-weight: 560; letter-spacing: 0; }
      .cmd { fill: #dbeafe; font-size: 15px; font-weight: 760; letter-spacing: 0; }
      .metric { fill: #334155; font-size: 13px; font-weight: 720; letter-spacing: 0; }
      .bad { fill: #be123c; }
      .ok { fill: #047857; }
      .warn { fill: #a16207; }
      .surface { fill: #ffffff; stroke: #dbe4ef; stroke-width: 1.2; }
      .terminal { fill: #0b1020; stroke: #1e293b; stroke-width: 1.2; }
      .row { fill: #f8fafc; stroke: #e2e8f0; stroke-width: 1; }
    </style>
  </defs>

  <rect width="1280" height="560" rx="32" fill="url(#bg)"/>
  <rect x="1.5" y="1.5" width="1277" height="557" rx="30.5" fill="none" stroke="#dbe4ef" stroke-width="3"/>

  <g transform="translate(64 54)">
    <rect width="132" height="30" rx="15" fill="#dbeafe" stroke="#bfdbfe"/>
    <text x="20" y="20" class="mono label" fill="#1d4ed8">5 MIN DEMO</text>
    <text x="0" y="78" class="sans title">Context soup becomes a contract</text>
    <text x="0" y="112" class="sans lead">Run a coding-agent workflow, then inspect exactly what the next agent receives.</text>
    <rect x="0" y="140" width="520" height="5" rx="2.5" fill="url(#accent)"/>
  </g>

  <g transform="translate(746 58)" filter="url(#shadow)">
    <rect width="432" height="104" rx="20" class="terminal"/>
    <circle cx="28" cy="26" r="6.5" fill="#fb7185"/>
    <circle cx="51" cy="26" r="6.5" fill="#fbbf24"/>
    <circle cx="74" cy="26" r="6.5" fill="#34d399"/>
    <text x="28" y="62" class="mono cmd">pip install handoffkit</text>
    <text x="28" y="88" class="mono cmd">handoffkit report runs/latest</text>
  </g>

  <g transform="translate(64 238)" filter="url(#shadow)">
    <rect width="350" height="238" rx="24" class="surface"/>
    <rect x="26" y="26" width="112" height="30" rx="15" fill="#ffe4e6" stroke="#fecdd3"/>
    <text x="49" y="46" class="sans label bad">BEFORE</text>
    <text x="26" y="96" class="sans h2 bad">Before: vague summary</text>
    <text x="26" y="138" class="sans body">"Basically done.</text>
    <text x="26" y="168" class="sans body">Reviewer found an issue.</text>
    <text x="26" y="198" class="sans body">Tester should run it."</text>
  </g>

  <g transform="translate(452 330)">
    <path d="M0 0H112" stroke="#94a3b8" stroke-width="3.2" stroke-linecap="round"/>
    <path d="M98 -14L114 0L98 14" fill="none" stroke="#94a3b8" stroke-width="3.2" stroke-linecap="round" stroke-linejoin="round"/>
    <rect x="12" y="-70" width="90" height="36" rx="18" fill="#ffffff" stroke="#cbd5e1"/>
    <text x="39" y="-47" class="mono label" fill="#475569">lost</text>
    <rect x="2" y="32" width="110" height="36" rx="18" fill="#ffffff" stroke="#cbd5e1"/>
    <text x="26" y="55" class="mono label" fill="#475569">becomes</text>
  </g>

  <g transform="translate(604 216)" filter="url(#shadow)">
    <rect width="610" height="286" rx="26" class="surface"/>
    <rect x="30" y="28" width="104" height="30" rx="15" fill="#dcfce7" stroke="#bbf7d0"/>
    <text x="52" y="48" class="sans label ok">AFTER</text>
    <text x="30" y="92" class="sans h2 ok">After: HandoffState</text>
    <text x="30" y="124" class="sans muted">Files, decisions, errors, and next steps travel as data.</text>

    <g transform="translate(30 154)">
      <rect width="254" height="42" rx="13" class="row"/>
      <circle cx="22" cy="21" r="6" fill="#2563eb"/>
      <text x="42" y="27" class="sans body">decisions: use argparse</text>

      <rect x="296" width="254" height="42" rx="13" class="row"/>
      <circle cx="318" cy="21" r="6" fill="#059669"/>
      <text x="338" y="27" class="sans body">files: calculator.py</text>

      <rect y="62" width="254" height="42" rx="13" class="row"/>
      <circle cx="22" cy="83" r="6" fill="#be123c"/>
      <text x="42" y="89" class="sans body">errors: checked path</text>

      <rect x="296" y="62" width="254" height="42" rx="13" class="row"/>
      <circle cx="318" cy="83" r="6" fill="#f59e0b"/>
      <text x="338" y="89" class="sans body">next_steps: pytest -q</text>
    </g>

    <g transform="translate(30 260)">
      <text x="0" y="0" class="mono metric ok">validation passed</text>
      <text x="166" y="0" class="mono metric" fill="#1d4ed8">quality A / 1.000</text>
      <text x="350" y="0" class="mono metric warn">replay: 4 steps, 3 handoffs</text>
    </g>
  </g>
</svg>
