<svg xmlns="http://www.w3.org/2000/svg" width="1280" height="720" viewBox="0 0 1280 720" role="img" aria-labelledby="title desc">
  <title id="title">HandoffKit hero</title>
  <desc id="desc">HandoffKit hero graphic showing contract handoff traces, structured HandoffState, validation, quality scoring, replay, and reports for multi-agent Python workflows.</desc>
  <defs>
    <linearGradient id="bg" x1="0" y1="0" x2="1280" y2="720" gradientUnits="userSpaceOnUse">
      <stop stop-color="#070b16"/>
      <stop offset="0.55" stop-color="#0d1525"/>
      <stop offset="1" stop-color="#102016"/>
    </linearGradient>
    <linearGradient id="wash" x1="138" y1="82" x2="1180" y2="656" gradientUnits="userSpaceOnUse">
      <stop stop-color="#0ea5e9" stop-opacity="0.18"/>
      <stop offset="0.45" stop-color="#22c55e" stop-opacity="0.12"/>
      <stop offset="1" stop-color="#f59e0b" stop-opacity="0.10"/>
    </linearGradient>
    <linearGradient id="accent" x1="72" y1="0" x2="520" y2="0" gradientUnits="userSpaceOnUse">
      <stop stop-color="#38bdf8"/>
      <stop offset="0.48" stop-color="#34d399"/>
      <stop offset="1" stop-color="#f59e0b"/>
    </linearGradient>
    <linearGradient id="stateStroke" x1="0" y1="0" x2="1" y2="1">
      <stop stop-color="#38bdf8"/>
      <stop offset="0.52" stop-color="#34d399"/>
      <stop offset="1" stop-color="#f59e0b"/>
    </linearGradient>
    <linearGradient id="panelFill" x1="0" y1="0" x2="640" y2="560" gradientUnits="userSpaceOnUse">
      <stop stop-color="#111a2c"/>
      <stop offset="1" stop-color="#0b1220"/>
    </linearGradient>
    <pattern id="grid" width="48" height="48" patternUnits="userSpaceOnUse">
      <path d="M48 0H0V48" fill="none" stroke="#1e293b" stroke-opacity="0.35" stroke-width="1"/>
    </pattern>
    <filter id="shadow" x="-10%" y="-12%" width="120%" height="130%">
      <feDropShadow dx="0" dy="22" stdDeviation="25" flood-color="#000000" flood-opacity="0.38"/>
    </filter>
    <filter id="softShadow" x="-10%" y="-12%" width="120%" height="130%">
      <feDropShadow dx="0" dy="14" stdDeviation="16" flood-color="#000000" flood-opacity="0.28"/>
    </filter>
    <marker id="arrow" viewBox="0 0 12 12" refX="10" refY="6" markerWidth="10" markerHeight="10" orient="auto-start-reverse">
      <path d="M2 2L10 6L2 10" fill="none" stroke="#94a3b8" stroke-width="2" stroke-linecap="round" stroke-linejoin="round"/>
    </marker>
    <style>
      .sans { font-family: Inter, ui-sans-serif, system-ui, -apple-system, BlinkMacSystemFont, "Segoe UI", sans-serif; }
      .mono { font-family: ui-monospace, SFMono-Regular, Menlo, Consolas, "Liberation Mono", monospace; }
      .eyebrow { fill: #8ddcff; font-size: 12px; font-weight: 850; letter-spacing: 0; }
      .title { fill: #f8fafc; font-size: 78px; font-weight: 880; letter-spacing: 0; }
      .subtitle { fill: #dbeafe; font-size: 25px; font-weight: 650; letter-spacing: 0; }
      .body { fill: #9fb4ce; font-size: 15px; font-weight: 580; letter-spacing: 0; }
      .terminal { fill: #d1fae5; font-size: 16px; font-weight: 780; letter-spacing: 0; }
      .terminalDim { fill: #94a3b8; font-size: 12px; font-weight: 760; letter-spacing: 0; }
      .chipText { fill: #e0f2fe; font-size: 12px; font-weight: 820; letter-spacing: 0; }
      .panelKicker { fill: #8ddcff; font-size: 12px; font-weight: 850; letter-spacing: 0; }
      .panelTitle { fill: #f8fafc; font-size: 22px; font-weight: 860; letter-spacing: 0; }
      .panelSub { fill: #cbd5e1; font-size: 14px; font-weight: 650; letter-spacing: 0; }
      .nodeTitle { fill: #f8fafc; font-size: 18px; font-weight: 860; letter-spacing: 0; }
      .nodeSub { fill: #cbd5e1; font-size: 12px; font-weight: 720; letter-spacing: 0; }
      .metric { fill: #f8fafc; font-size: 20px; font-weight: 880; letter-spacing: 0; }
      .metricLabel { fill: #9fb4ce; font-size: 12px; font-weight: 760; letter-spacing: 0; }
      .tiny { fill: #7dd3fc; font-size: 11px; font-weight: 760; letter-spacing: 0; }
    </style>
  </defs>

  <rect width="1280" height="720" rx="40" fill="url(#bg)"/>
  <rect x="30" y="26" width="1220" height="668" rx="34" fill="url(#wash)" opacity="0.92"/>
  <rect width="1280" height="720" rx="40" fill="url(#grid)" opacity="0.24"/>
  <rect x="1.5" y="1.5" width="1277" height="717" rx="38.5" fill="none" stroke="#31435e" stroke-width="3"/>

  <path d="M72 132H520" stroke="url(#accent)" stroke-width="6" stroke-linecap="round"/>
  <path d="M72 618H430" stroke="#26364f" stroke-width="1.2"/>

  <g transform="translate(72 70)">
    <g>
      <rect width="240" height="36" rx="18" fill="#062c42" stroke="#0e7490"/>
      <path d="M21 18H35M28 11V25" stroke="#38bdf8" stroke-width="2" stroke-linecap="round"/>
      <text x="48" y="24" class="mono eyebrow">PYTHON AGENT CONTRACTS</text>
    </g>

    <text x="0" y="128" class="sans title">HandoffKit</text>
    <text x="0" y="174" class="sans subtitle">Contract handoffs for</text>
    <text x="0" y="209" class="sans subtitle">multi-agent Python workflows.</text>
    <text x="0" y="244" class="sans body">Validate state. Trace decisions. Replay every run.</text>

    <g transform="translate(0 286)" filter="url(#softShadow)">
      <rect width="442" height="136" rx="24" fill="#040915" stroke="#26364f"/>
      <rect x="1" y="1" width="440" height="42" rx="23" fill="#070b16" opacity="0.92"/>
      <circle cx="29" cy="22" r="6" fill="#fb7185"/>
      <circle cx="51" cy="22" r="6" fill="#facc15"/>
      <circle cx="73" cy="22" r="6" fill="#74d399"/>
      <text x="100" y="27" class="mono terminalDim">C:\handoffkit\coding-review</text>
      <text x="28" y="72" class="mono terminal">$ pip install handoffkit</text>
      <text x="28" y="101" class="mono terminal">$ handoffkit showcase coding-review</text>
    </g>

    <g transform="translate(0 458)">
      <rect width="140" height="38" rx="19" fill="#0f1f35" stroke="#2563eb"/>
      <text x="24" y="25" class="mono chipText">Python 3.10-3.14</text>
      <rect x="156" width="126" height="38" rx="19" fill="#082a1a" stroke="#15803d"/>
      <text x="190" y="25" class="mono chipText">offline</text>
      <rect x="298" width="126" height="38" rx="19" fill="#2a1a05" stroke="#b45309"/>
      <text x="331" y="25" class="mono chipText">replay</text>
    </g>

    <g transform="translate(0 548)">
      <text x="0" y="0" class="mono terminalDim">HandoffState = task + decisions + files + errors + next_steps</text>
      <path d="M0 24H328" stroke="#26364f" stroke-width="1.3" stroke-linecap="round"/>
    </g>
  </g>

  <g transform="translate(532 58)" filter="url(#shadow)">
    <rect width="684" height="594" rx="34" fill="url(#panelFill)" stroke="#334155" stroke-width="1.5"/>
    <rect x="26" y="26" width="632" height="78" rx="23" fill="#050816" stroke="#26364f"/>
    <text x="54" y="56" class="mono panelKicker">CONTRACT HANDOFF TRACE</text>
    <text x="54" y="82" class="mono terminal">Architect -> Coder -> Reviewer -> Tester</text>
    <rect x="520" y="44" width="108" height="34" rx="17" fill="#052e16" stroke="#15803d"/>
    <text x="550" y="66" class="mono chipText">offline</text>

    <g transform="translate(46 138)">
      <rect width="126" height="78" rx="22" fill="#071225" stroke="#38bdf8" stroke-width="2"/>
      <text x="26" y="34" class="sans nodeTitle">Architect</text>
      <text x="40" y="58" class="sans nodeSub">decides</text>

      <path d="M144 39H188" stroke="#94a3b8" stroke-width="3" stroke-linecap="round" marker-end="url(#arrow)"/>

      <rect x="206" width="116" height="78" rx="22" fill="#071225" stroke="#34d399" stroke-width="2"/>
      <text x="234" y="34" class="sans nodeTitle">Coder</text>
      <text x="236" y="58" class="sans nodeSub">builds</text>

      <path d="M340 39H356" stroke="#94a3b8" stroke-width="3" stroke-linecap="round" marker-end="url(#arrow)"/>

      <rect x="374" width="126" height="78" rx="22" fill="#071225" stroke="#a78bfa" stroke-width="2"/>
      <text x="399" y="34" class="sans nodeTitle">Reviewer</text>
      <text x="414" y="58" class="sans nodeSub">checks</text>

      <path d="M518 39H548" stroke="#94a3b8" stroke-width="3" stroke-linecap="round" marker-end="url(#arrow)"/>

      <rect x="566" width="54" height="78" rx="19" fill="#071225" stroke="#f59e0b" stroke-width="2"/>
      <text x="582" y="34" class="sans nodeTitle">QA</text>
      <text x="580" y="58" class="sans nodeSub">tests</text>
    </g>

    <g transform="translate(48 266)">
      <rect width="588" height="160" rx="28" fill="#0a1322" stroke="url(#stateStroke)" stroke-width="2.8"/>
      <text x="30" y="47" class="sans panelTitle">HandoffState</text>
      <text x="30" y="77" class="sans panelSub">structured state transfer: decisions, files, errors, next steps</text>

      <g transform="translate(30 105)">
        <rect width="118" height="34" rx="17" fill="#082f49" stroke="#0ea5e9"/>
        <circle cx="23" cy="17" r="5" fill="#38bdf8"/>
        <text x="43" y="22" class="mono chipText">files</text>

        <rect x="134" width="146" height="34" rx="17" fill="#172554" stroke="#2563eb"/>
        <circle cx="157" cy="17" r="5" fill="#60a5fa"/>
        <text x="176" y="22" class="mono chipText">decisions</text>

        <rect x="296" width="126" height="34" rx="17" fill="#2a1a05" stroke="#b45309"/>
        <circle cx="319" cy="17" r="5" fill="#f59e0b"/>
        <text x="339" y="22" class="mono chipText">errors</text>
      </g>

      <g transform="translate(430 28)">
        <rect width="128" height="36" rx="18" fill="#052e16" stroke="#15803d"/>
        <text x="32" y="23" class="mono chipText">validated</text>
        <rect y="46" width="128" height="36" rx="18" fill="#172554" stroke="#2563eb"/>
        <text x="33" y="69" class="mono chipText">quality A</text>
        <rect y="92" width="128" height="36" rx="18" fill="#2a1a05" stroke="#b45309"/>
        <text x="31" y="115" class="mono chipText">replayable</text>
      </g>
    </g>

    <g transform="translate(48 470)">
      <rect width="170" height="70" rx="22" fill="#050816" stroke="#26364f"/>
      <text x="25" y="34" class="sans metric">4 steps</text>
      <text x="25" y="54" class="mono metricLabel">RunTrace</text>

      <rect x="208" width="170" height="70" rx="22" fill="#050816" stroke="#26364f"/>
      <text x="233" y="34" class="sans metric">3 handoffs</text>
      <text x="233" y="54" class="mono metricLabel">ReplayRunner</text>

      <rect x="416" width="170" height="70" rx="22" fill="#050816" stroke="#26364f"/>
      <text x="441" y="34" class="sans metric">reports</text>
      <text x="441" y="54" class="mono metricLabel">JSON + Markdown</text>
    </g>
  </g>
</svg>
